<svg width="265" height="96" viewBox="0 0 265 96" fill="none" xmlns="http://www.w3.org/2000/svg">
<path d="M0 35.5694L11.7996 55.2836L16.5195 50.8163L3.63822 31.879L0 35.5694Z" fill="url(#paint0_linear)"/>
<path d="M175.618 20.0311L175.126 22.6532L180.731 20.808L180.043 17.6032L175.618 20.0311Z" fill="#0071B9"/>
<path d="M142.579 2.2592L124.388 22.8474L129.698 21.3907L147.004 0.0255737L142.579 2.2592Z" fill="url(#paint1_linear)"/>
<path d="M240.024 30.4223L244.449 28.0916L243.171 39.1626L240.024 30.4223Z" fill="#1D2C5E"/>
<path d="M212.197 37.5117L216.228 38.3857L221.243 35.9578L216.818 34.3069L212.197 37.5117Z" fill="#1D2C5E"/>
<path d="M75.3209 25.8579L75.9109 38.5799L81.5157 36.4434L79.8441 23.4301L75.3209 25.8579Z" fill="url(#paint2_linear)"/>
<path d="M216.523 21.9734L212.098 24.4012L212.197 37.5117L216.72 35.2781L218.097 28.8685L216.523 21.9734Z" fill="url(#paint3_linear)"/>
<path d="M215.933 38.3857L211.017 81.5044L218.883 79.9506L220.358 36.0549L215.933 38.3857Z" fill="#312370"/>
<path d="M225.471 83.5438L225.668 89.3707L240.712 94.1293L245.236 91.7986L230.388 80.4362L215.441 79.1737L211.017 81.5044L225.471 83.5438Z" fill="#21386E"/>
<path d="M169.62 73.2497L173.258 71.3074L175.716 75.5804L179.158 73.7353L179.846 79.3679L201.774 83.2525L206.1 80.8246L175.913 62.6642L154.477 66.2575L150.347 70.2392L169.62 73.2497Z" fill="#21386E"/>
<path d="M162.638 20.2253L158.214 22.6532L150.347 70.2392L154.772 67.9084L162.343 41.202L162.638 20.2253Z" fill="url(#paint4_linear)"/>
<path d="M127.633 26.6349L124.093 28.48L124.388 29.6454L132.746 24.4012L129.108 20.5167L124.388 22.8474L127.633 26.6349Z" fill="#1D2C5E"/>
<path d="M137.171 82.8641L101.477 65.3835L105.902 61.9845L141.595 80.4362L137.171 82.8641Z" fill="#21386E"/>
<path d="M104.82 17.7974L99.4119 27.8973L105.115 26.2464L109.245 15.3696L104.82 17.7974Z" fill="#1D2C5E"/>
<path d="M55.655 59.6537L51.1318 62.7613C51.1318 62.7613 52.1151 67.8113 53.3934 71.3074C54.6717 74.8035 57.6216 77.6198 57.6216 77.6198C59.5882 79.465 61.8498 80.8246 64.5048 81.6015C69.5196 83.0582 75.2228 82.0871 80.1393 78.9794C81.4176 78.2025 83.1875 76.94 84.2692 75.8718C79.451 78.7852 55.655 59.6537 55.655 59.6537V59.6537Z" fill="url(#paint5_linear)"/>
<path d="M80.1391 37.6088L84.269 82.9612L101.378 80.5333L105.902 78.2026L84.7606 34.8896L80.4341 36.3463L75.9109 38.5799L80.1391 37.6088Z" fill="#1D2C5E"/>
<path d="M16.2244 53.3413L35.3005 95.9745L53.3933 90.2448L57.8181 87.3313L20.256 48.4856L15.5361 51.3019L11.7996 55.2836L16.2244 53.3413Z" fill="url(#paint6_linear)"/>
<path d="M204.92 73.4439L205.215 75.5805C206.788 75.3862 208.362 75.192 209.837 74.7064C211.508 74.1237 215.048 72.5699 216.326 71.4045C215.736 71.5988 207.477 73.7353 204.92 73.4439" fill="#1D2C5E"/>
<path d="M140.907 62.5672L141.595 65.9662C145.234 65.3835 148.38 64.121 151.527 62.2758C153.493 61.1104 155.558 59.4595 156.247 58.9739C155.755 59.2653 140.907 62.5672 140.907 62.5672Z" fill="#1D2C5E"/>
<path d="M40.2654 91.9093L38.8887 88.8016L20.796 48.9847L20.4026 48.2078L19.616 48.5963L19.026 48.8876L15.7811 50.4415C15.2895 49.6645 14.5028 48.3049 14.0112 47.4309L6.73473 35.2916L4.86646 32.0869L8.01303 30.1446C10.9629 28.2994 14.3062 26.5513 18.0427 24.9975C25.3192 21.987 32.6939 20.336 39.4787 20.336C41.7403 20.336 43.9036 20.5303 45.8702 20.8216C49.2134 21.2101 52.36 22.2783 54.9166 24.0264C58.7515 26.1629 61.7997 29.4648 63.4713 33.3493C64.8479 36.5541 65.1429 40.3416 64.258 44.2261L63.7663 46.5569L65.7329 45.1973C67.0112 44.2261 68.3878 43.4492 69.8628 42.8665C72.4194 41.7983 75.0743 41.2156 77.7292 41.2156C80.2858 41.2156 82.6457 41.7012 84.809 42.6723L86.1856 43.255L86.0873 41.7012L85.4973 35.1945L85.399 34.1263L84.4157 34.4176L81.3674 35.1945L80.8758 24.1235L103.295 17.0341L103.098 25.6773L104.77 26.0658L109.687 16.8399L124.338 29.659L124.928 30.2417L125.518 29.659C127.484 27.8138 129.943 26.26 132.598 25.1917L133.679 24.7062L132.893 23.735L130.238 20.5303L147.052 1.39874L155.902 14.4121L142.431 21.5985L139.481 23.1523L142.922 23.2495C149.314 23.3466 155.017 26.0658 158.852 30.7273L160.228 32.4753L161.113 33.5436L159.638 35.0974L158.655 36.1657L155.312 39.7589L154.722 40.4387L155.41 41.0214L158.557 43.8377L159.737 44.9059L160.032 43.3521L161.212 35.9714L161.507 34.0291L161.802 32.0869L163.572 21.1129H180.288L180.386 20.336L180.681 18.4909H195.234L198.774 40.4387L198.97 41.8954L200.15 41.0214C201.625 39.9531 203.199 39.1762 204.87 38.4964C207.132 37.6224 209.393 37.2339 211.753 37.2339C214.507 37.2339 217.162 37.8166 219.423 39.0791C219.522 39.0791 219.522 39.1762 219.718 39.2733L220.8 39.6618L220.898 38.4964L221.193 36.0685L221.291 35.2916L220.505 35.0974L217.555 34.4176L217.457 22.9581L239.974 27.8138L241.646 36.0685H243.416L245.186 28.9792L263.967 33.4465L244.694 90.6468L231.026 86.3737L230.928 81.1296V80.3527L230.141 80.2555L216.473 78.3133L217.26 71.4181L217.457 69.7672L215.982 70.5441C215.293 70.9326 214.605 71.2239 213.917 71.4181C211.655 72.2922 209.393 72.6806 207.132 72.6806C206.444 72.6806 205.854 72.6806 205.165 72.5835L203.985 72.4864L204.182 73.6518L205.165 79.6729L185.204 76.1767L184.123 67.2422L183.828 64.3288L182.451 66.8538L180.189 71.2239L175.961 63.5519L174.683 61.2211L174.29 63.8432L173.405 69.7672L155.902 67.048L157.278 58.8904L157.573 57.0452L155.902 58.0164C153.05 59.6673 149.707 61.0269 145.872 61.9009C144.495 62.1923 143.119 62.4836 141.644 62.5807L140.857 62.6779V78.9931L106.442 62.1923L105.163 61.6096V77.4392L89.7255 79.6729L89.0372 72.7777L88.8405 70.9326L87.4639 72.1951C85.399 74.1373 83.1374 75.6912 80.6791 76.7594C78.1225 77.8277 75.4676 78.4104 72.911 78.4104C70.2561 78.4104 67.7978 77.8277 65.5362 76.8565C61.4064 74.9143 58.3581 71.321 57.0798 66.7567C56.4899 64.6201 56.2932 62.3865 56.5882 60.0558L56.8832 57.6279L55.1132 59.376C53.8349 60.5413 52.4583 61.7067 50.9834 62.775L50.4917 63.1634L50.6884 63.7461L55.8999 83.3632L56.7849 86.8593L53.3433 87.9276L43.6086 91.0352L40.2654 91.9093V91.9093ZM44.5919 39.1762C44.1002 39.1762 43.6086 39.1762 43.0186 39.2733L42.3303 39.3704L41.347 39.5647L41.642 40.5358L41.8386 41.1185L44.5919 50.1501L44.8869 51.0241L45.2802 52.2866L46.2635 51.4126L46.9518 50.8299C49.7051 48.4021 50.59 45.9742 50.0001 42.8665C49.6067 41.0214 48.2301 40.1473 47.3451 39.7589C46.7552 39.3704 45.6735 39.1762 44.5919 39.1762V39.1762ZM119.52 39.4675L117.75 41.1185L113.128 45.4886L112.145 46.4598L113.423 46.9453L118.34 48.7905L119.815 49.3732L119.52 47.8194C119.126 45.78 119.028 43.7406 119.225 41.7983L119.52 39.4675ZM139.579 34.4176C137.711 34.4176 135.842 35.1945 134.564 36.6512C132.598 38.7877 132.204 41.9925 133.581 44.5175L133.974 45.1973L134.564 46.2655L135.449 45.2944L136.039 44.7117L142.824 37.1368L143.316 36.5541L144.201 35.583L143.021 35.0974L142.234 34.8061C141.251 34.6118 140.464 34.4176 139.579 34.4176V34.4176Z" fill="#FFCB05"/>
<path d="M149.855 45.6693L149.658 45.8635C149.757 45.8635 149.855 45.7664 149.855 45.6693Z" fill="#7D7F68"/>
<path d="M155.755 40.4251L159.098 36.8318L157.918 37.9972V37.9001L156.935 38.9684L153.592 42.4645L156.738 45.2808L157.328 41.7847L158.902 43.1443L155.755 40.4251Z" fill="#7D7F68"/>
<path d="M155.755 40.4251L158.902 43.1443L160.082 35.7636L159.098 36.8319L155.755 40.4251Z" fill="#7D7F68"/>
<path d="M132.451 49.2625C132.746 49.5538 132.451 49.3596 132.746 49.5538L134.811 48.0971C134.516 47.9029 134.221 47.6115 133.926 47.4173C130.976 44.6981 131.762 38.677 133.631 35.3751C128.518 39.4539 128.813 45.6692 132.451 49.2625Z" fill="#C7A008"/>
<path d="M157.328 52.6615C153.887 55.4778 150.052 57.2258 144.939 58.4883C143.857 58.7797 142.677 58.9739 141.694 58.9739C133.533 59.7508 126.748 56.0605 124.191 50.1365C123.896 49.4567 123.601 48.6798 123.405 47.9029C122.225 42.8529 123.208 38.3857 125.764 34.7924C126.059 34.404 126.256 34.1126 126.551 33.8213C126.453 33.9184 126.256 34.0155 126.158 34.1126C125.174 34.9867 124.289 35.8607 123.601 36.9289C121.045 40.4251 120.061 44.9894 121.241 50.0394C121.438 50.8163 121.635 51.5932 122.028 52.273C124.584 58.2941 131.468 61.9844 139.531 61.2075C140.612 61.1104 141.694 60.9162 142.874 60.6248C147.987 59.3623 151.92 57.6143 155.264 54.798C156.05 54.1182 156.935 53.3413 157.722 52.5643L157.623 52.4672C157.427 52.5643 157.328 52.5643 157.328 52.6615Z" fill="#C7A008"/>
<path d="M100.002 37.4146L109.048 24.7897L108.655 24.4984L99.9036 36.6376L100.002 37.4146Z" fill="#C7A008"/>
<path d="M160.082 35.7636L158.902 43.1443L157.328 41.7847L156.738 45.2808L153.592 42.4645L156.935 38.9684L157.918 37.9001V37.9972L159.098 36.8319L160.082 35.7636Z" fill="#C7A008"/>
<path d="M148.872 14.9811L152.019 13.6215L146.217 6.24084L144.349 8.96004L148.872 14.9811Z" fill="#C7A008"/>
<path d="M60.768 33.2386C46.0185 15.5638 19.5676 25.081 10.1279 33.3358L10.5213 34.0156C12.6845 32.7531 15.0444 31.6848 17.4044 30.6166C26.8441 26.6349 35.8905 25.4695 43.0686 26.732C45.6252 27.0233 48.2801 27.8002 50.64 29.3541C53.8849 31.1992 56.3432 33.7242 57.8181 37.0261C60.3747 42.853 58.1131 50.6221 52.115 57.0317C59.6864 50.1365 64.8979 43.5328 60.768 33.2386V33.2386Z" fill="#C7A008"/>
<path d="M90.7589 53.8269C90.6606 53.5355 90.6606 53.1471 90.5623 52.8557C89.7756 49.9423 88.0057 47.6115 85.6457 46.0577C81.9092 43.5327 76.5994 43.0472 71.3879 45.1837C68.6346 46.3491 66.2747 48.1942 64.3081 50.3307C65.7831 49.0683 67.4547 48.0971 69.2246 47.3202C74.4361 45.0866 79.7459 45.6693 83.4825 48.1942C85.8424 49.7481 87.6124 52.0788 88.399 54.9922C88.4973 55.2836 88.5957 55.672 88.5957 55.9634C88.7923 57.1287 88.8906 58.197 88.8906 59.3624C88.7923 62.7614 87.514 66.1604 85.4491 69.0738C85.1541 69.5594 84.7608 69.9478 84.3675 70.4334C85.5474 69.3651 86.6291 68.2969 87.514 67.0344C89.6773 64.121 90.8572 60.722 91.0539 57.323C91.0539 56.1576 90.9556 54.9922 90.7589 53.8269Z" fill="#C7A008"/>
<path d="M76.3043 49.5538C76.3043 49.5538 78.4676 47.4173 78.3693 47.4173C75.7143 47.3202 74.5344 49.8451 74.436 50.0394C75.026 49.748 75.616 49.6509 76.3043 49.5538Z" fill="#C7A008"/>
<path d="M81.3192 52.5644C81.4175 52.9528 81.5159 53.2442 81.5159 53.6326C81.5159 54.2153 81.4175 54.7009 81.1226 55.1865C81.5159 54.9922 84.6625 53.4384 83.4825 50.3307C83.5808 50.525 81.2209 52.5644 81.3192 52.5644Z" fill="#C7A008"/>
<path d="M69.1262 54.4095C69.1262 53.147 71.3878 49.9423 72.0761 48.874C68.5362 51.1077 66.9629 54.1182 66.9629 56.4489C66.9629 60.5277 70.6011 63.8296 74.9276 63.8296C76.9926 63.8296 80.7291 62.7614 83.1874 58.8768C81.9091 59.7508 78.6642 61.6931 76.8942 61.6931C72.5677 61.6931 69.1262 58.4883 69.1262 54.4095" fill="#C7A008"/>
<path d="M99.5103 58.0999L99.6086 74.5122L102.264 74.7064L101.674 55.9634L99.5103 58.0999Z" fill="#C7A008"/>
<path d="M84.3674 26.732V28.1887L96.9537 24.4983L97.8387 40.328L100.002 37.4145L99.5103 21.5849L84.3674 26.732Z" fill="#C7A008"/>
<path d="M122.224 32.3646L110.523 21.682L109.048 24.7897L119.471 34.404L122.224 32.3646Z" fill="#C7A008"/>
<path d="M120.454 52.2731L106.59 47.7087L104.623 49.8452L118.39 55.2836C119.963 58.197 122.323 60.722 125.273 62.4701C128.124 64.2181 131.467 65.2864 134.909 65.5777V72.2786L137.072 73.3469L137.761 63.247L120.454 52.2731Z" fill="#C7A008"/>
<path d="M142.677 50.4279C146.119 49.651 147.987 47.9029 149.757 45.9606C148.479 47.0289 142.186 48.3885 141.104 48.6798L139.039 50.9134C139.924 50.9134 141.497 50.7192 142.677 50.4279" fill="#C7A008"/>
<path d="M136.482 27.1204C130.189 27.8973 126.944 33.1415 126.453 33.7242C128.813 31.7819 131.664 30.3252 134.909 29.6454C142.677 27.8002 149.462 30.131 153.69 35.278L156.345 33.1415C152.117 28.0916 144.251 25.2752 136.482 27.1204" fill="#C7A008"/>
<path d="M157.525 52.4673C158.312 51.8846 159.59 51.2048 160.377 50.4279L152.018 43.0472C151.33 43.8241 150.838 45.0866 150.052 45.6693L157.525 52.4673Z" fill="#C7A008"/>
<path d="M200.495 72.2785C191.744 65.0921 192.236 49.8451 196.562 44.9894L192.727 21.0022L184.271 22.0705L183.877 24.207H190.269L193.71 45.9606C189.384 50.8163 187.319 57.3229 188.696 63.344C189.777 68.0055 192.727 71.6958 196.857 73.8324C197.25 74.0266 197.742 74.2208 198.135 74.415L198.234 74.7064L200.79 75.0949C200.692 75.192 200.987 72.4728 200.495 72.2785V72.2785Z" fill="#C7A008"/>
<path d="M166.768 24.4984L166.375 26.6349H176.011L178.863 42.076L181.026 39.9395L178.764 23.6243L166.768 24.4984Z" fill="#C7A008"/>
<path d="M183.288 54.4095L180.141 62.3729L180.928 64.5094L185.353 52.3701L183.288 54.4095Z" fill="#C7A008"/>
<path d="M174.045 49.4567L171.881 51.5932L169.521 65.9662L171.783 66.7431L174.045 49.4567Z" fill="#C7A008"/>
<path d="M217.408 44.7952C218.686 45.6692 219.768 46.8346 220.555 48.1942C221.243 49.2625 221.636 50.3307 222.03 51.6903C223.111 56.0605 221.833 60.722 219.08 64.4123C218.785 64.8008 218.49 65.1892 218.195 65.4806C219.276 64.5094 233.043 54.5066 219.67 41.3962C204.92 36.6376 199.315 46.0577 198.824 46.7375C200.397 45.475 202.167 44.3096 204.134 43.6298C209.05 41.6876 213.967 42.3674 217.408 44.7952" fill="#C7A008"/>
<path d="M210.033 45.7664C210.033 45.8635 212.197 43.6299 212.197 43.6299C209.541 43.727 208.263 44.9895 208.46 45.5722C208.263 45.7664 208.165 46.0577 208.066 46.252C208.558 45.9606 209.64 45.7664 210.033 45.7664" fill="#C7A008"/>
<path d="M214.95 49.0683C215.048 49.4567 215.048 49.7481 215.048 50.1365C215.048 50.6221 214.852 51.1077 214.655 51.4961C215.048 51.3019 218.195 50.3308 217.015 46.8347C217.113 47.0289 214.852 49.0683 214.95 49.0683Z" fill="#C7A008"/>
<path d="M207.968 60.0422C210.918 60.1393 214.262 58.3912 216.622 55.1865C210.623 56.449 204.232 46.4462 204.822 45.475C202.56 47.126 200.495 50.2336 200.397 52.4673C200.2 56.5461 203.642 59.848 207.968 60.0422Z" fill="#C7A008"/>
<path d="M241.106 85.9717L242.482 86.8457L259.788 35.5694L246.809 32.6559L246.711 35.6665L257.134 37.9001L241.106 85.9717Z" fill="#C7A008"/>
<path d="M220.555 27.1204L220.653 30.0339L234.419 32.7531L239.729 57.6143L241.892 55.4778L236.779 30.3252L220.555 27.1204Z" fill="#C7A008"/>
<path d="M231.174 55.4778L227.339 76.6487L229.503 77.3285L233.337 53.3412L231.174 55.4778Z" fill="#C7A008"/>
<path d="M52.5083 84.4179L46.1169 61.3047L43.757 62.9556L49.7551 85.0006L52.5083 84.4179Z" fill="#C7A008"/>
<path d="M50.8369 49.748C49.3619 51.3019 46.0187 54.3124 44.1504 55.4778L42.9704 51.8846L40.5122 43.9212L38.9389 38.5799L37.3656 40.5222L38.9389 45.8635L41.3971 53.7297L42.5771 57.323C45.232 55.8662 48.9686 52.7586 50.8369 49.748" fill="#C7A008"/>
<path d="M142.087 36.055C140.022 35.2781 137.171 35.4723 135.597 37.2203C135.204 37.6088 134.516 38.5799 134.319 39.0655C135.794 37.9001 138.547 37.6088 140.219 38.2886L142.087 36.055V36.055Z" fill="#7D7F68"/>
<path d="M49.0668 43.2414C48.8701 42.076 47.6902 41.1049 47.1002 40.8136C46.1169 40.328 44.2486 40.2309 42.9703 40.5222C43.167 41.2991 43.462 42.2703 43.5603 42.6587C44.052 42.7558 44.9369 42.853 45.4286 43.0472C46.0186 43.3385 47.0019 43.9212 47.1985 45.1837C47.4935 46.7375 47.3952 48.2914 46.7069 49.4567C48.5751 47.7087 49.4601 45.7664 49.0668 43.2414" fill="#7D7F68"/>
<path d="M52.2615 43.1579C51.3766 38.4964 45.1817 35.8743 38.9869 39.1762L40.5602 44.5175L43.0185 52.4808L44.1984 56.0741C48.82 53.2577 53.4415 49.6645 52.2615 43.1579V43.1579ZM46.1651 50.4414C45.4767 48.3049 44.0018 43.6434 44.0018 43.6434C44.0018 43.6434 43.7068 42.6723 43.3135 41.5069C44.5918 41.3127 45.8701 41.4098 46.8534 41.8954C47.4433 42.1867 48.4266 42.7694 48.6233 44.0319C49.2133 46.5569 48.3283 48.4991 46.1651 50.4414V50.4414Z" fill="#3C5AA6"/>
<path d="M145.282 35.7772C141.84 32.6695 136.531 32.8637 133.384 36.2627C130.237 39.6617 130.434 44.9059 133.876 48.0136C134.171 48.3049 134.466 48.4992 134.761 48.6934L145.872 36.2627C145.675 36.1656 145.479 35.9714 145.282 35.7772V35.7772ZM134.859 44.5175C133.777 42.5752 133.974 40.0502 135.646 38.3021C137.219 36.6512 139.579 36.1656 141.644 36.9425L134.859 44.5175Z" fill="#3567B0"/>
<path d="M160.082 34.404L153.985 40.2308L159.787 45.3779L160.082 34.404Z" fill="#1E2D5F"/>
<path d="M217.015 46.9317C217.113 47.3202 217.113 47.7087 217.113 48.0971C217.015 50.4279 214.851 52.1759 212.197 52.0788C209.542 51.9817 207.477 50.0394 207.575 47.7087C207.673 45.5721 209.64 43.8241 212 43.727C211.508 43.6299 211.017 43.5327 210.525 43.5327C206.1 43.3385 202.56 46.4462 202.364 50.2336C202.167 54.3124 205.51 57.7114 209.837 57.8085C214.261 58.0028 217.801 54.8951 217.998 50.8163C218.293 49.4567 217.801 48.0971 217.015 46.9317" fill="#3466AF"/>
<path d="M83.679 51.5932C83.679 53.924 81.5157 55.7691 78.9592 55.7691C76.3042 55.7691 74.2393 53.924 74.2393 51.5932C74.2393 49.4567 76.1076 47.6115 78.5658 47.4173C78.0742 47.3202 77.5825 47.3202 77.0909 47.3202C72.666 47.3202 69.2245 50.525 69.2245 54.4095C69.2245 58.4883 72.666 61.6931 76.9926 61.6931C81.4174 61.6931 84.8589 58.4883 84.8589 54.4095C84.8589 52.9528 84.3673 51.6903 83.5807 50.525C83.5807 50.8163 83.679 51.2048 83.679 51.5932" fill="url(#paint7_linear)"/>
<path d="M244.399 28.1051L242.432 36.0685L240.662 27.2311L216.473 21.9869L216.67 35.2916L220.308 36.0685L220.013 38.4964C220.013 38.4964 219.915 38.4964 219.915 38.3993C215.392 36.0685 209.787 35.7772 204.575 37.8166C202.805 38.4964 201.134 39.3704 199.659 40.4387L196.021 17.7139H179.993L179.599 20.336H162.687L160.72 31.9897L159.343 30.2417C155.213 25.2888 149.314 22.5696 142.726 22.3754L157.082 14.8005L147.052 0.0391235L128.959 20.6273L132.106 24.4148C129.254 25.5802 126.796 27.134 124.731 29.0763L109.195 15.4803L103.787 25.6773L103.983 15.7716L79.6958 23.4437L80.3841 36.2627L84.514 35.1945L85.104 41.7011C80.3841 39.5646 74.6809 39.6617 69.4694 41.8954C67.8961 42.5752 66.4212 43.3521 65.1429 44.3232C66.0279 40.3415 65.8312 36.457 64.2579 32.9609C62.488 28.8821 59.2431 25.3859 55.4082 23.2494C52.6549 21.4043 49.4101 20.336 45.9685 19.9476C37.6104 18.4908 27.4824 19.9475 17.551 24.1235C13.9128 25.6773 10.4713 27.4253 7.42302 29.3676L3.58813 31.7955L5.94806 35.6801L13.2245 47.9165L15.4861 51.6068L19.4193 49.6645L20.0093 49.3732L38.1021 89.19L39.872 92.9775L43.9036 91.715L53.6383 88.6073L57.9648 87.2477L56.8832 82.9747L51.6717 63.3576C53.1466 62.2894 54.5232 61.124 55.8015 59.8615C55.5065 62.1923 55.7032 64.6201 56.2932 66.8537C57.6698 71.6123 60.8164 75.3998 65.2412 77.4392C69.9611 79.6728 75.7626 79.6728 81.0724 77.4392C83.7273 76.2738 86.1856 74.72 88.1522 72.6806L88.8405 80.5469L105.95 78.0219V62.8721L141.644 80.3526V63.5519C143.119 63.4547 144.495 63.1634 145.97 62.8721C149.904 61.9009 153.247 60.6384 156.295 58.8904L154.82 67.922L174.093 70.9325L175.174 64.0374L180.189 73.2633L183.238 67.4364L184.319 77.0507L206.149 80.8382L204.969 73.5546C207.918 73.846 211.065 73.4575 214.113 72.3893C214.802 72.0979 215.588 71.8066 216.178 71.4181L215.293 79.1873L229.846 81.2267L229.944 87.1506L245.087 91.8121L264.852 33.058L244.399 28.1051V28.1051ZM159.048 36.8454L160.032 35.7772L158.852 43.1579L155.705 40.3415L159.048 36.8454V36.8454ZM146.265 6.54578L151.575 13.6351L136.432 21.0158L135.351 19.462C135.351 19.5591 146.265 6.54578 146.265 6.54578ZM46.0668 61.3182L52.065 84.2372L42.3303 87.3449L22.2709 43.0607C21.1893 43.6434 19.1243 44.6146 17.3544 45.4886L10.0779 33.3493C12.9295 31.5041 16.1744 29.9503 19.5176 28.4936C28.9574 24.5119 38.0037 23.3465 45.1819 24.609C47.7384 24.9004 50.3934 25.6773 52.7533 27.2311C55.9982 29.0763 58.4564 31.6013 59.9314 34.9031C63.4713 42.8665 57.6698 54.326 46.0668 61.3182V61.3182ZM91.0038 57.2394C90.9054 60.6384 89.6271 64.0374 87.4639 66.9509C85.3989 69.7672 82.6457 72.0008 79.3025 73.4575C70.8461 77.0508 62.3897 73.4575 60.1281 65.4941C57.9648 57.8221 63.078 48.6934 71.2394 45.1973C76.4509 42.9636 81.7607 43.5463 85.4973 46.0713C87.8572 47.6251 89.6271 49.9559 90.4138 52.8693C90.5121 53.1606 90.6104 53.5491 90.6104 53.8404C91.0038 55.0058 91.0038 56.1712 91.0038 57.2394V57.2394ZM137.121 73.4575L101.623 55.9769L101.722 74.3315L92.5771 75.594L91.8887 68.0191C94.7403 63.2605 95.7236 57.5308 94.2487 52.3837C93.462 49.5674 91.9871 47.0424 89.9221 45.1001L88.6438 29.659L84.514 30.7272L84.3173 26.8427L99.0668 22.4725L99.9518 37.4281L110.768 22.3754L121.486 32.3782L106.638 47.8193L120.601 53.2577C122.174 56.1712 124.534 58.599 127.484 60.4442C130.336 62.1923 133.679 63.2605 137.121 63.5519V73.4575ZM118.733 48.0136L113.816 46.1684L118.438 41.7983C118.143 43.8377 118.241 45.8771 118.733 48.0136ZM157.278 52.6751C153.837 55.4914 150.002 57.2394 144.889 58.5019C143.807 58.7933 142.627 58.9875 141.644 58.9875C133.482 59.7644 126.698 56.0741 124.141 50.1501C123.846 49.4703 123.551 48.6934 123.354 47.9165C122.174 42.8665 123.158 38.3993 125.714 34.806C126.403 33.7378 127.288 32.8637 128.271 31.9897C130.631 29.8532 133.679 28.3965 137.121 27.5225C144.889 25.6773 151.674 28.008 155.902 33.058L141.152 48.5963C142.136 48.7905 143.709 48.4991 144.889 48.2078C148.429 47.3338 150.395 45.4886 152.067 43.5463L157.967 48.7905L159.737 50.3443C158.95 51.2183 158.163 51.9953 157.278 52.6751V52.6751ZM188.646 73.3604L185.401 52.3837L180.878 63.9403L174.093 49.4703H173.995L171.34 66.2711L160.032 64.3288L161.605 55.0058C161.998 54.6173 162.49 54.2289 162.883 53.7433L166.521 50.053L162.982 46.8482L166.816 24.5119H178.223L181.074 39.9531L184.319 22.0841H192.481L195.922 43.8377C191.596 48.6934 189.531 55.2 190.907 61.2211C191.989 65.8826 194.939 69.5729 199.069 71.8066C199.462 72.0008 199.954 72.195 200.347 72.3893L200.74 75.2056L188.646 73.3604V73.3604ZM216.867 66.4653C215.588 67.3393 214.212 68.1162 212.737 68.6018C209.787 69.6701 206.935 69.9614 204.28 69.3787C202.51 68.9903 200.839 68.3105 199.364 67.3393C197.102 65.6884 195.431 63.3576 194.644 60.3471C193.759 56.7539 194.546 52.8693 196.512 49.4703C197.495 47.8193 198.774 46.2655 200.249 44.9059C201.92 43.4492 203.887 42.1867 205.952 41.4098C210.967 39.5646 215.883 40.2444 219.325 42.6723C220.603 43.5463 221.685 44.7117 222.471 46.0713C223.061 47.1395 223.553 48.3049 223.848 49.5674C224.93 53.9375 223.651 58.599 220.898 62.2894C220.013 63.9403 218.538 65.2999 216.867 66.4653V66.4653ZM242.432 86.2766L234.074 83.8487L233.386 53.3549L229.158 76.8565L220.013 75.3998L220.701 68.6018C226.7 63.649 229.846 55.7827 228.076 48.5963C227.29 45.4886 225.716 42.6723 223.356 40.6329L224.143 32.6695L220.701 31.7955L220.8 27.5225L236.533 30.6301L241.842 55.3943L247.251 33.1551L259.247 35.7772L242.432 86.2766V86.2766Z" fill="url(#paint8_linear)"/>
<path d="M253.692 82.864H254.085C254.577 82.864 254.97 82.6698 254.97 82.1842C254.97 81.8929 254.675 81.5044 254.085 81.5044H253.692V82.864ZM253.692 84.9034H253.102V81.2131C253.397 81.116 253.692 81.116 254.184 81.116C254.774 81.116 255.167 81.2131 255.364 81.4073C255.56 81.6015 255.757 81.7958 255.757 82.1842C255.757 82.6698 255.462 82.9611 255.069 83.0582C255.364 83.1554 255.659 83.4467 255.659 83.9323C255.757 84.515 255.855 84.7092 255.855 84.8063H255.265C255.167 84.7092 255.069 84.3207 254.97 83.8352C254.872 83.3496 254.675 83.1554 254.184 83.1554H253.692V84.9034V84.9034ZM254.38 80.1448C252.905 80.1448 251.725 81.4073 251.725 82.9611C251.725 84.515 252.905 85.7774 254.479 85.7774C255.954 85.7774 257.134 84.515 257.134 82.9611C257.035 81.4073 255.855 80.1448 254.38 80.1448ZM254.38 79.6592C256.249 79.6592 257.625 81.116 257.625 82.9611C257.625 84.8063 256.15 86.263 254.282 86.263C252.414 86.263 250.939 84.8063 250.939 82.9611C251.037 81.116 252.512 79.6592 254.38 79.6592V79.6592Z" fill="black"/>
<defs>
<linearGradient id="paint0_linear" x1="13.0779" y1="52.005" x2="3.41622" y2="33.7755" gradientUnits="userSpaceOnUse">
<stop stop-color="#0070B6"/>
<stop offset="1" stop-color="#1D2C5E"/>
</linearGradient>
<linearGradient id="paint1_linear" x1="133.213" y1="14.9676" x2="145.549" y2="1.58356" gradientUnits="userSpaceOnUse">
<stop stop-color="#0070B6"/>
<stop offset="1" stop-color="#1D2C5E"/>
</linearGradient>
<linearGradient id="paint2_linear" x1="78.6661" y1="37.0261" x2="77.2116" y2="24.6514" gradientUnits="userSpaceOnUse">
<stop stop-color="#0070B6"/>
<stop offset="1" stop-color="#1D2C5E"/>
</linearGradient>
<linearGradient id="paint3_linear" x1="215.241" y1="34.6449" x2="214.661" y2="23.4779" gradientUnits="userSpaceOnUse">
<stop stop-color="#125D9E"/>
<stop offset="1" stop-color="#1D2C5E"/>
</linearGradient>
<linearGradient id="paint4_linear" x1="173.515" y1="18.5501" x2="160.626" y2="39.3101" gradientUnits="userSpaceOnUse">
<stop stop-color="#125D9E"/>
<stop offset="1" stop-color="#1D2C5E"/>
</linearGradient>
<linearGradient id="paint5_linear" x1="57.3955" y1="51.6155" x2="66.166" y2="69.0804" gradientUnits="userSpaceOnUse">
<stop stop-color="#105FA1"/>
<stop offset="1" stop-color="#1D2C5E"/>
</linearGradient>
<linearGradient id="paint6_linear" x1="23.6395" y1="45.6848" x2="33.7783" y2="69.4822" gradientUnits="userSpaceOnUse">
<stop stop-color="#105FA1"/>
<stop offset="1" stop-color="#1D2C5E"/>
</linearGradient>
<linearGradient id="paint7_linear" x1="69.0819" y1="54.4911" x2="84.7449" y2="54.4911" gradientUnits="userSpaceOnUse">
<stop stop-color="#3C5AA6"/>
<stop offset="0.933" stop-color="#2B73B9"/>
<stop offset="1" stop-color="#2A75BB"/>
</linearGradient>
<linearGradient id="paint8_linear" x1="3.66385" y1="46.5287" x2="264.97" y2="46.5287" gradientUnits="userSpaceOnUse">
<stop stop-color="#3C5AA6"/>
<stop offset="0.933" stop-color="#2B73B9"/>
<stop offset="1" stop-color="#2A75BB"/>
</linearGradient>
</defs>
</svg>
